<svg width="25" height="24" viewBox="0 0 25 24" fill="none" xmlns="http://www.w3.org/2000/svg">
<path d="M20.76 15.38C19.53 15.38 18.34 15.18 17.23 14.82C17.0561 14.7611 16.8691 14.7523 16.6905 14.7948C16.5118 14.8372 16.3488 14.9291 16.22 15.06L14.65 17.03C11.82 15.68 9.17 13.13 7.76 10.2L9.71 8.54C9.98 8.26 10.06 7.87 9.95 7.52C9.58 6.41 9.39 5.22 9.39 3.99C9.39 3.45 8.94 3 8.4 3H4.94C4.4 3 3.75 3.24 3.75 3.99C3.75 13.28 11.48 21 20.76 21C21.47 21 21.75 20.37 21.75 19.82V16.37C21.75 15.83 21.3 15.38 20.76 15.38Z" fill="white"/>
</svg>
