<svg width="40" height="40" viewBox="0 0 40 40" fill="none" xmlns="http://www.w3.org/2000/svg">
<path d="M19.9997 3.33333C10.7997 3.33333 3.33301 10.8 3.33301 20C3.33301 29.2 10.7997 36.6667 19.9997 36.6667C29.1997 36.6667 36.6663 29.2 36.6663 20C36.6663 10.8 29.1997 3.33333 19.9997 3.33333ZM27.733 14.6667C27.483 17.3 26.3997 23.7 25.8497 26.65C25.6163 27.9 25.1497 28.3167 24.7163 28.3667C23.7497 28.45 23.0163 27.7333 22.083 27.1167C20.6163 26.15 19.783 25.55 18.3663 24.6167C16.7163 23.5333 17.783 22.9333 18.733 21.9667C18.983 21.7167 23.2497 17.8333 23.333 17.4833C23.3446 17.4303 23.343 17.3753 23.3285 17.323C23.314 17.2707 23.2869 17.2228 23.2497 17.1833C23.1497 17.1 23.0163 17.1333 22.8997 17.15C22.7497 17.1833 20.4163 18.7333 15.8663 21.8C15.1997 22.25 14.5997 22.4833 14.0663 22.4667C13.4663 22.45 12.333 22.1333 11.483 21.85C10.433 21.5167 9.61634 21.3333 9.68301 20.75C9.71634 20.45 10.133 20.15 10.9163 19.8333C15.783 17.7167 19.0163 16.3167 20.633 15.65C25.2663 13.7167 26.2163 13.3833 26.8497 13.3833C26.983 13.3833 27.2997 13.4167 27.4997 13.5833C27.6663 13.7167 27.7163 13.9 27.733 14.0333C27.7163 14.1333 27.7497 14.4333 27.733 14.6667Z" fill="white" fill-opacity="0.7"/>
</svg>
