<svg width="202" height="40" viewBox="0 0 102 40" fill="none" xmlns="http://www.w3.org/2000/svg">
<path d="M0.755807 40L6.12651 1.52717H13.1497L8.65694 33.803H25.1305L24.2526 40H0.755807ZM28.2274 40L32.1522 11.9071H38.9688L35.0441 40H28.2274ZM32.5653 8.75697L33.5981 1.52717H40.4148L39.4336 8.75697H32.5653ZM41.3395 40L45.2642 11.9071H51.6161L50.8931 17.4327L50.48 16.2966C51.3751 14.5752 52.5973 13.3186 54.1465 12.5268C55.6958 11.7005 57.4172 11.2874 59.3107 11.2874C61.4452 11.2874 63.2526 11.7866 64.733 12.785C66.2478 13.7834 67.3495 15.1433 68.0381 16.8647C68.761 18.5516 68.9676 20.4623 68.6578 22.5969L66.2306 40H59.4656L61.7895 23.3715C62.0305 21.5812 61.7034 20.1525 60.8083 19.0852C59.9132 18.018 58.6393 17.4844 56.9868 17.4844C55.8851 17.4844 54.8523 17.7426 53.8883 18.259C52.9588 18.741 52.1842 19.4295 51.5645 20.3246C50.9792 21.2198 50.5833 22.287 50.3767 23.5264L48.1045 40H41.3395ZM71.9511 40L77.4251 0.907476H84.2418L80.6269 26.5216L77.4767 25.747L92.6593 11.9071H101.697L89.7157 23.2166L97.9784 40H90.6453L83.5188 25.4371L87.237 24.6109L77.4767 33.6998L80.2137 29.5684L78.7678 40H71.9511Z" fill="white"/>
</svg>
